<svg width="25" height="25" viewBox="0 0 25 25" fill="none" xmlns="http://www.w3.org/2000/svg">
<path d="M24.938 12.2134C24.938 18.9012 19.5165 24.3228 12.8287 24.3228C6.14083 24.3228 0.719299 18.9012 0.719299 12.2134C0.719299 5.52554 6.14083 0.104004 12.8287 0.104004C19.5165 0.104004 24.938 5.52554 24.938 12.2134ZM11.428 18.6252L20.4124 9.64082C20.7174 9.33574 20.7174 8.84106 20.4124 8.53599L19.3075 7.43115C19.0025 7.12603 18.5078 7.12603 18.2026 7.43115L10.8755 14.7582L7.4547 11.3374C7.14962 11.0323 6.65494 11.0323 6.34982 11.3374L5.24498 12.4422C4.9399 12.7473 4.9399 13.2419 5.24498 13.547L10.3231 18.6251C10.6282 18.9303 11.1229 18.9303 11.428 18.6252V18.6252Z" fill="black"/>
</svg>
