<svg width="10" height="25" viewBox="0 0 10 25" fill="none" xmlns="http://www.w3.org/2000/svg">
<path d="M5 0C6.72588 0 8.125 1.39912 8.125 3.125C8.125 4.85088 6.72588 6.25 5 6.25C3.27412 6.25 1.875 4.85088 1.875 3.125C1.875 1.39912 3.27412 0 5 0ZM7.34375 7.03125H6.78906C5.68013 7.54116 4.36768 7.56318 3.21094 7.03125H2.65625C1.36182 7.03125 0.3125 8.08057 0.3125 9.375V16.0156C0.3125 16.6628 0.837158 17.1875 1.48438 17.1875H2.26562V23.8281C2.26562 24.4753 2.79028 25 3.4375 25H6.5625C7.20972 25 7.73438 24.4753 7.73438 23.8281V17.1875H8.51562C9.16284 17.1875 9.6875 16.6628 9.6875 16.0156V9.375C9.6875 8.08057 8.63818 7.03125 7.34375 7.03125Z" fill="black"/>
</svg>
