<svg width="25" height="25" viewBox="0 0 25 25" fill="none" xmlns="http://www.w3.org/2000/svg">
<path d="M0.5 12.1094C0.5 5.69606 5.69606 0.5 12.1094 0.5C18.5227 0.5 23.7188 5.69606 23.7188 12.1094C23.7188 18.5227 18.5227 23.7188 12.1094 23.7188C5.69606 23.7188 0.5 18.5227 0.5 12.1094ZM18.5547 14.5625C19.1531 14.5625 19.6406 14.075 19.6406 13.4766V10.7422C19.6406 10.1438 19.1531 9.65625 18.5547 9.65625H14.5625V5.66406C14.5625 5.06565 14.075 4.57812 13.4766 4.57812H10.7422C10.1438 4.57812 9.65625 5.06565 9.65625 5.66406V9.65625H5.66406C5.06565 9.65625 4.57812 10.1438 4.57812 10.7422V13.4766C4.57812 14.075 5.06565 14.5625 5.66406 14.5625H9.65625V18.5547C9.65625 19.1531 10.1438 19.6406 10.7422 19.6406H13.4766C14.075 19.6406 14.5625 19.1531 14.5625 18.5547V14.5625H18.5547Z" fill="black" stroke="black"/>
</svg>
