<svg width="13" height="26" viewBox="0 0 13 26" fill="none" xmlns="http://www.w3.org/2000/svg">
<path d="M6.5625 0.875C8.28838 0.875 9.6875 2.27412 9.6875 4C9.6875 5.72588 8.28838 7.125 6.5625 7.125C4.83662 7.125 3.4375 5.72588 3.4375 4C3.4375 2.27412 4.83662 0.875 6.5625 0.875ZM12.3869 18.1689L10.0431 8.7939C9.97973 8.54036 9.83341 8.31528 9.62742 8.15445C9.42143 7.99362 9.16759 7.90625 8.90625 7.90625H8.35156C7.24263 8.41616 5.93017 8.43818 4.77344 7.90625H4.21875C3.95741 7.90625 3.70357 7.99362 3.49758 8.15445C3.29159 8.31528 3.14527 8.54036 3.08188 8.7939L0.738133 18.1689C0.553465 18.9075 1.11245 19.625 1.875 19.625H4.60937V24.7031C4.60937 25.3503 5.13403 25.875 5.78125 25.875H7.34375C7.99097 25.875 8.51562 25.3503 8.51562 24.7031V19.625H11.25C12.0113 19.625 12.5718 18.9086 12.3869 18.1689Z" fill="black"/>
</svg>
